<svg xmlns="http://www.w3.org/2000/svg" width="786.54" height="1080" viewBox="0 0 786.54 1080">
  <metadata><?xpacket begin="﻿" id="W5M0MpCehiHzreSzNTczkc9d"?>
<x:xmpmeta xmlns:x="adobe:ns:meta/" x:xmptk="Adobe XMP Core 5.6-c140 79.160451, 2017/05/06-01:08:21        ">
   <rdf:RDF xmlns:rdf="http://www.w3.org/1999/02/22-rdf-syntax-ns#">
      <rdf:Description rdf:about=""/>
   </rdf:RDF>
</x:xmpmeta>
                                                                                                    




















<?xpacket end="w"?></metadata>
<defs>
    <style>
      .cls-1 {
        fill: #998d81;
        fill-rule: evenodd;
      }
    </style>
  </defs>
  <path class="cls-1" d="M2548.36,1080.71H2283.02l131.32-132.553V712.817L2044.77,1080.71V284.054L1928.34,166.38S2093.49-1.336,2093.49.013l116.43,116.326V367.912l370.92-367.9V783.147L2450.89,914.34h263.98ZM2253.24,328.684c-14.89,13.529-28.43,28.4-43.32,41.933V670.884l175.99-175.833c9.47-8.117,18.95-17.582,28.43-27.047V167.737Zm-43.32,582.951,18.95-17.582v-236.7l-18.95,17.583v236.7Zm185.46-183.941,18.96-18.94v-236.7L2395.38,491v236.7Z" transform="translate(-1928.34)"/>
</svg>
