<svg xmlns="http://www.w3.org/2000/svg" id="Layer_1" data-name="Layer 1" viewBox="0 0 1920 217.79"><defs><style>.cls-1{fill:#fff6ba;stroke-width:0}</style></defs><path d="M74.68 70.18h12.35v.85c-.49.49-.79 1.02-.92 1.59-.12.57-.18 1.55-.18 2.93v26.28h76.51V70.18h12.35v.85c-.49.49-.8 1.02-.92 1.59-.12.57-.18 1.55-.18 2.93v70.76h-11.25v-35.44H85.93v35.44H74.68V70.17ZM239.63 147.66c-11.25 0-20.94-1.61-29.09-4.83-8.15-3.22-14.42-7.74-18.82-13.57-4.4-5.82-6.6-12.69-6.6-20.59s2.2-14.4 6.6-20.22c4.4-5.83 10.67-10.41 18.82-13.75s17.84-5.01 29.09-5.01 20.94 1.67 29.09 5.01c8.15 3.34 14.42 7.92 18.82 13.75s6.6 12.57 6.6 20.22-2.2 14.77-6.6 20.59c-4.4 5.83-10.68 10.35-18.82 13.57-8.15 3.22-17.84 4.83-29.09 4.83Zm0-9.04c8.55 0 16.07-1.18 22.55-3.55 6.48-2.36 11.5-5.76 15.09-10.2 3.59-4.44 5.38-9.84 5.38-16.2 0-6.03-1.79-11.28-5.38-15.77-3.59-4.48-8.62-7.96-15.09-10.45-6.48-2.49-13.99-3.73-22.55-3.73s-16.07 1.24-22.55 3.73-11.51 5.97-15.1 10.45c-3.59 4.49-5.38 9.74-5.38 15.77 0 6.36 1.79 11.75 5.38 16.2 3.59 4.44 8.62 7.84 15.1 10.2 6.48 2.37 13.99 3.55 22.55 3.55ZM317.12 139.35c-8.27-5.54-12.4-13.6-12.4-24.2V70.18h12.34v.85c-.49.49-.79 1.02-.92 1.59-.12.57-.18 1.55-.18 2.93v39.72c0 7.98 3.34 13.87 10.02 17.66 6.68 3.79 16.05 5.68 28.11 5.68s21.72-1.89 28.48-5.68c6.76-3.79 10.15-9.8 10.15-18.03V70.17h10.75v44.61c0 7.66-2.04 13.92-6.11 18.76-4.07 4.85-9.84 8.41-17.29 10.69-7.46 2.28-16.2 3.42-26.21 3.42-16.22 0-28.46-2.77-36.73-8.31ZM435.21 145.22c-7.94-1.63-14.93-4.03-20.96-7.21l6.6-7.58.85-.98.61.61c.08.65.36 1.12.85 1.4.49.28 1.35.75 2.56 1.41 4.4 1.96 9.92 3.4 16.56 4.34 6.64.94 13.99 1.41 22.06 1.41 4.56 0 9.04-.28 13.44-.85 4.4-.56 8.39-1.39 11.98-2.49 3.59-1.09 6.46-2.4 8.62-3.94 2.16-1.53 3.24-3.28 3.24-5.21 0-1.54-.49-2.86-1.46-3.95-.98-1.09-2.51-2.09-4.59-2.98-2.08-.89-4.73-1.76-7.94-2.61-3.22-.85-7.05-1.76-11.49-2.74-4.44-.97-9.51-2.07-15.21-3.29-10.6-2.03-18.93-4.16-24.99-6.38-6.07-2.23-10.39-4.64-12.96-7.24-2.56-2.6-3.85-5.43-3.85-8.51 0-3.81 1.83-7.12 5.5-9.91 3.67-2.8 8.92-4.97 15.77-6.51 6.84-1.54 15.07-2.31 24.69-2.31 5.54 0 10.92.37 16.13 1.1 5.21.73 10.08 1.79 14.6 3.18 4.52 1.39 8.53 3.13 12.04 5.25l-6.23 7.33-.85.98-.61-.61c-.08-.65-.39-1.1-.92-1.34-.53-.25-1.37-.65-2.51-1.22-4.48-1.87-9.7-3.28-15.64-4.22-5.95-.93-12.18-1.4-18.7-1.4-3.99 0-7.9.18-11.73.55-3.83.36-7.27.93-10.33 1.7-3.05.77-5.48 1.72-7.27 2.85-1.79 1.14-2.69 2.48-2.69 4.02 0 1.13.55 2.25 1.65 3.34 1.1 1.1 2.77 2.17 5.01 3.22 2.24 1.05 5.09 2.1 8.55 3.16 3.46 1.05 7.58 2.13 12.35 3.22 4.77 1.09 10.24 2.25 16.44 3.46 7.49 1.54 13.71 3.06 18.64 4.56 4.93 1.5 8.84 3.08 11.73 4.74 2.89 1.66 4.95 3.49 6.17 5.47 1.22 1.99 1.83 4.23 1.83 6.75 0 3.73-1.75 7.25-5.26 10.57-3.5 3.32-9.01 6.04-16.5 8.15-7.5 2.1-17.19 3.16-29.09 3.16-9.86 0-18.76-.82-26.7-2.45ZM526.25 146.32V70.18h95.81v9.04h-84.57v22.86h71.13v9.04h-71.13v26.15h83.84v9.04h-95.08ZM654.8 145.22c-7.94-1.63-14.93-4.03-20.96-7.21l6.6-7.58.85-.98.61.61c.08.65.36 1.12.85 1.4.49.28 1.35.75 2.56 1.41 4.4 1.96 9.92 3.4 16.56 4.34 6.64.94 13.99 1.41 22.06 1.41 4.56 0 9.04-.28 13.44-.85 4.4-.56 8.39-1.39 11.98-2.49 3.59-1.09 6.46-2.4 8.62-3.94 2.16-1.53 3.24-3.28 3.24-5.21 0-1.54-.49-2.86-1.46-3.95-.98-1.09-2.51-2.09-4.59-2.98-2.08-.89-4.73-1.76-7.94-2.61-3.22-.85-7.05-1.76-11.49-2.74-4.44-.97-9.51-2.07-15.21-3.29-10.6-2.03-18.93-4.16-24.99-6.38-6.07-2.23-10.39-4.64-12.96-7.24-2.56-2.6-3.85-5.43-3.85-8.51 0-3.81 1.83-7.12 5.5-9.91 3.67-2.8 8.92-4.97 15.77-6.51 6.84-1.54 15.07-2.31 24.69-2.31 5.54 0 10.92.37 16.13 1.1 5.21.73 10.08 1.79 14.6 3.18 4.52 1.39 8.53 3.13 12.04 5.25l-6.23 7.33-.85.98-.61-.61c-.08-.65-.39-1.1-.92-1.34-.53-.25-1.37-.65-2.51-1.22-4.48-1.87-9.7-3.28-15.64-4.22-5.95-.93-12.18-1.4-18.7-1.4-3.99 0-7.9.18-11.73.55-3.83.36-7.27.93-10.33 1.7-3.05.77-5.48 1.72-7.27 2.85-1.79 1.14-2.69 2.48-2.69 4.02 0 1.13.55 2.25 1.65 3.34 1.1 1.1 2.77 2.17 5.01 3.22 2.24 1.05 5.09 2.1 8.55 3.16 3.46 1.05 7.58 2.13 12.35 3.22 4.77 1.09 10.24 2.25 16.44 3.46 7.49 1.54 13.71 3.06 18.64 4.56 4.93 1.5 8.84 3.08 11.73 4.74 2.89 1.66 4.95 3.49 6.17 5.47 1.22 1.99 1.83 4.23 1.83 6.75 0 3.73-1.75 7.25-5.26 10.57-3.5 3.32-9.01 6.04-16.5 8.15-7.5 2.1-17.19 3.16-29.09 3.16-9.86 0-18.76-.82-26.7-2.45ZM912 147.66c-11.25 0-20.94-1.61-29.09-4.83-8.15-3.22-14.42-7.74-18.82-13.57-4.4-5.82-6.6-12.69-6.6-20.59s2.2-14.4 6.6-20.22c4.4-5.83 10.67-10.41 18.82-13.75s17.84-5.01 29.09-5.01 20.94 1.67 29.09 5.01 14.42 7.92 18.82 13.75 6.6 12.57 6.6 20.22-2.2 14.77-6.6 20.59c-4.4 5.83-10.68 10.35-18.82 13.57-8.15 3.22-17.84 4.83-29.09 4.83Zm0-9.04c8.55 0 16.07-1.18 22.55-3.55 6.48-2.36 11.5-5.76 15.09-10.2 3.59-4.44 5.38-9.84 5.38-16.2 0-6.03-1.79-11.28-5.38-15.77-3.59-4.48-8.62-7.96-15.09-10.45-6.48-2.49-13.99-3.73-22.55-3.73s-16.07 1.24-22.55 3.73-11.51 5.97-15.1 10.45c-3.59 4.49-5.38 9.74-5.38 15.77 0 6.36 1.79 11.75 5.38 16.2 3.59 4.44 8.62 7.84 15.1 10.2 6.48 2.37 13.99 3.55 22.55 3.55ZM980.73 146.32V70.18h90.19v9.04h-78.95v21.51h65.26v9.04h-65.26v36.54h-11.24ZM1205.1 70.18h12.35v.85c-.49.49-.79 1.02-.92 1.59-.12.57-.18 1.55-.18 2.93v26.28h76.51V70.18h12.35v.85c-.49.49-.8 1.02-.92 1.59-.12.57-.18 1.55-.18 2.93v70.76h-11.25v-35.44h-76.51v35.44h-11.25V70.17ZM1319.54 146.32V70.18h95.81v9.04h-84.57v22.86h71.13v9.04h-71.13v26.15h83.84v9.04h-95.08ZM1481.24 85.88l-44.49 60.43h-12.46l56.22-76.63h1.96l56.22 76.63h-13.2l-44.24-60.43Zm32.27 39.54h-65.02l7.33-8.8h52.31l5.38 8.8ZM1560.57 146.32l-52.31-76.26h12.96l43.87 64.24 42.9-64.12h11.98l-51.58 76.14h-7.82ZM1628.21 146.32V70.18h95.81v9.04h-84.57v22.86h71.13v9.04h-71.13v26.15h83.84v9.04h-95.08ZM1736.32 70.18h11.49l75.29 60.98V70.18h12.34v.85c-.49.49-.79 1.02-.92 1.59-.12.57-.18 1.55-.18 2.93v70.76h-8.31l-78.46-64.29v64.29h-11.25V70.17Z" class="cls-1"/><path d="M767.15 184.27H34.88V33.76h732.28v150.51Zm-726.54-5.73h720.81V39.5H40.61v139.04ZM1885.12 184.27h-732.28V33.76h732.28v150.51Zm-726.54-5.73h720.81V39.5h-720.81v139.04Z" class="cls-1"/></svg>